/* XPM */
static char *collectible[] = {
/* columns rows colors chars-per-pixel */
"64 64 9 1 ",
"  c #3F2832",
". c #743F39",
"X c #D03D36",
"o c #E53B44",
"O c #B86F50",
"+ c #FFE762",
"@ c #4F6781",
"# c #AFBFD2",
"$ c white",
/* pixels */
"                                                                ",
" XXXXXXXXXXXXXXXXXXXXXXXXXXXXXXXXXXXXXXXXXXXXXXXXXXXXXXXXXXXXXX ",
" XXXXXXXXXXXXXXXXXXXXXXXXXXXXXXXXXXXXXXXXXXXXXXXXXXXXXXXXXXXXXX ",
" XXXXXXXXXXXXXXXXXXXXXXXXXXXXXXXXXXXXXXXXXXXXXXXXXXXXXXXXXXXXXX ",
" XXXXXXXXXXXXXXXXXXXXXXXXXXXXXXXXXXXXXXXXXXXXXXXXXXXXXXXXXXXXXX ",
" XXXXXXXXXXXXXXXXXXXXXXXXXXXXXXXXXXXXXXXXXXXXXXXXXXXXXXXXXXXXXX ",
" XXXXXXXXXXXXXXXXXXXXXXXXXXXXXXXXXXXXXXXXXXXXXXXXXXXXXXXXXXXXXX ",
" XXXXXXXXXXXXXXXXXXXXXXXXXXXXXXXXXXXXXXXXXXXXXXXXXXXXXXXXXXXXXX ",
" XXXXXXXXXXXXXXXXXXXXXXXXXXXXXXXXXXXXXXXXXXXXXXXXXXXXXXXXXXXXXX ",
" XXXXXXXXXXXXXXXXXXXXXXXXXXXXXXXXXXXXXXXXXXXXXXXXXXXXXXXXXXXXXX ",
" XXXXXXXXXXXXXXXXXXXXXXXXXXXXXXXXXXXXXXXXXXXXXXXXXXXXXXXXXXXXXX ",
" XXXXXXXXXXXXXXXXXXXX@$$$$$$$$$$$XXXXXXXXXXXXXXXXXXXXXXXXXXXXXX ",
" XXXXXXXXXXXXXXXXXXX@$$$$$$$$$$$$$XXXXXXXXXXXXXXXXXXXXXXXXXXXXX ",
" XXXXXXXXXXXXXXXXXX@$$$$$$$$$$$$$$$XXXXXXXXXXXXXXXXXXXXXXXXXXXX ",
" XXXXXXXXXXXXXXXXX@$$$$$$$$$$$$$$$$$XXXXXXXXXXXXXXXXXXXXXXXXXXX ",
" XXXXXXXXXXXXXXXX@$$$$$$$$$$$$$$$$$$$XXXXXXXXXXXXXXXXXXXXXXXXXX ",
" XXXXXXXXXXXXXXXX$$$$$$$$$$$$$$$$$$$$$XXXXXXXXXXXXXXXXXXXXXXXXX ",
" XXXXXXXXXXXXXXX@$$$$@@@@$$$$$@@@@$$$$XXXXXXXXXXXXXXXXXXXXXXXXX ",
" XXXXXXXXXXXXXXX@$$$$@$$@$$$$$@$$@$$$$XXXXXXXXXXXXXXXXXXXXXXXXX ",
" XXXXXXXXXXXXXXX@$$$$@$#@$$$$$@$#@$$$$XXXXXXXXXXXXXXXXXXXXXXXXX ",
" XXXXXXXXXXXXXXX@$$$$@$#@$$$$$@$#@$$$$XXXXXXXXXXXXXXXXXXXXXXXXX ",
" XXXXXXXXXXXXXXX@$$$$@@@@$$$$$@@@@$$$$XXXXXXXXXXXXXXXXXXXXXXXXX ",
" XXXXXXXXXXXXXXX@$$$$$$$$$$$$$$$$$$$$$XXXXXXXXXXXXXXXXXXXXXXXXX ",
" XXXXXXXXXXXXXXX@$$$$$$$$$$$$$$$$$$$$$XXXXXXXXXXXXXXXXXXXXXXXXX ",
" XXXXXXXXXXXXXXX@$$$$$$$$$$$$$$$$$$$$$XXXXXXXXXXXXXXXXXXXXXXXXX ",
" XXXXXXXXXXXXXXX@$$$$$$$$$$$$$$$$$$$$$XXXXXXXXXXXXXXXXXXXXXXXXX ",
" XXXXXXXXXXXXXXX@$$$$$$$$$$$$$$$$$$$$$XXXXXXXXXXXXXXXXXXXXXXXXX ",
" XXXXXXXXXXXXXXX@$$$$$$$$$$$$$$$$$$$$$XXXXXXXXXXXXXXX+XXXXXXXXX ",
" XXXXXXXXXXXXXXX@$$$$$$$$$$$$$$$$$$$$$XXXXXXXXXXXXXX+XXXXXXXXXX ",
" XXXXXXXXXXXXXXX@$$$$$$$$$$$$$$$$$$$$$XXXXXXXXXXXXX+XXXXXXXXXXX ",
" XXXXXXXXXXXXXXX@$$$$$$$$@@@@@@$$$$$$$XXXXXXXXXXXX+XXXXXXXXXXXX ",
" XXXXXXXXXXXXXXX@$$$$$$$@#oooo#@$$$$$$XXXXXXXXXXXXX+XXXXXXXXXXX ",
" XXXXXXXXXXXXXXX@$$$$$$@#$oooo$#@$$$$$XXXXXXXXXXXXXX+XXXXXXXXXX ",
" XXXXXXXXXXXXXXX@$$$$$@#$$oooo$$#@$$$$XXXXXXXXXXXXX+XXXXXXXXXXX ",
" XXXXXXXXXXXXXXX@$$$$$$$$$oooo$$$$$$$$XXXXXXXXXXXXXX+XXXXXXXXXX ",
" XXXXXXXXXXXXXXX@$$$$$$$$$$oo$$$$$$$$$XXXXXXXXXXXXX+XXXXXXXXXXX ",
" XXXXXXXXXXXXXXX@$$$$$$$$$$$$$$$$$$$$$XXXXXXXXXXXXXXXXXXXXXXXXX ",
" XXXXXXXXXXXXXXX@$$$$$$$$$$$$$$$$$$$$$XXXXXXXXXXXXXO.XXXXXXXXXX ",
" XXXXXXXXXXXXXXX@$$$$$$$$$$$$$$$$$$$$$XXXXXXXXXXXX..O.XXXXXXXXX ",
" XXXXXXXXXXXXXXX@$$$$$$$$$$$$$$$$$$$$$XXXXXXXXXXX..OO..XXXXXXXX ",
" XXXXXXXXXXXXXXX@$$$$$$$$$$$$$$$$$$$$$XXXXXXXXXX..OO....XXXXXXX ",
" XXXXXXXXXXXXXXX@$$$$$$$$$$$$$$$$$$$$$XXXXXXXXX..O.......XXXXXX ",
" XXXXXXXXXXXXXXX@$$$$@@@@@@@@@@@@@$$$$XXXXXXXXXXXXXXXXXXXXXXXXX ",
" XXXXXXXXXXXXXXX@$$$@XXXXXXXXXXXXX@$$$XXXXXXXXXXXXXXXXXXXXXXXXX ",
" XXXXXXXXXXXXXXX@$$@XXXXXXXXXXXXXXX@$$XXXXXXXXXXXXXXXXXXXXXXXXX ",
" XXXXXXXXXXXXXXX@$@XXXXXXXXXXXXXXXXX@$XXXXXXXXXXXXXXXXXXXXXXXXX ",
" XXXXXXXXXXXXXXX@XXXXXXXXXXXXXXXXXXXXXXXXXXXXXXXXXXXXXXXXXXXXXX ",
" XXXXXXXXXXXXXXXXXXXXXXXXXXXXXXXXXXXXXXXXXXXXXXXXXXXXXXXXXXXXXX ",
" XXXXXXXXXXXXXXXXXXXXXXXXXXXXXXXXXXXXXXXXXXXXXXXXXXXXXXXXXXXXXX ",
" XXXXXXXXXXXXXXXXXXXXXXXXXXXXXXXXXXXXXXXXXXXXXXXXXXXXXXXXXXXXXX ",
" XXXXXXXXXXXXXXXXXXXXXXXXXXXXXXXXXXXXXXXXXXXXXXXXXXXXXXXXXXXXXX ",
" XXXXXXXXXXXXXXXXXXXXXXXXXXXXXXXXXXXXXXXXXXXXXXXXXXXXXXXXXXXXXX ",
" XXXXXXXXXXXXXXXXXXXXXXXXXXXXXXXXXXXXXXXXXXXXXXXXXXXXXXXXXXXXXX ",
" XXXXXXXXXXXXXXXXXXXXXXXXXXXXXXXXXXXXXXXXXXXXXXXXXXXXXXXXXXXXXX ",
" XXXXXXXXXXXXXXXXXXXXXXXXXXXXXXXXXXXXXXXXXXXXXXXXXXXXXXXXXXXXXX ",
" XXXXXXXXXXXXXXXXXXXXXXXXXXXXXXXXXXXXXXXXXXXXXXXXXXXXXXXXXXXXXX ",
" XXXXXXXXXXXXXXXXXXXXXXXXXXXXXXXXXXXXXXXXXXXXXXXXXXXXXXXXXXXXXX ",
" XXXXXXXXXXXXXXXXXXXXXXXXXXXXXXXXXXXXXXXXXXXXXXXXXXXXXXXXXXXXXX ",
" XXXXXXXXXXXXXXXXXXXXXXXXXXXXXXXXXXXXXXXXXXXXXXXXXXXXXXXXXXXXXX ",
" XXXXXXXXXXXXXXXXXXXXXXXXXXXXXXXXXXXXXXXXXXXXXXXXXXXXXXXXXXXXXX ",
" XXXXXXXXXXXXXXXXXXXXXXXXXXXXXXXXXXXXXXXXXXXXXXXXXXXXXXXXXXXXXX ",
" XXXXXXXXXXXXXXXXXXXXXXXXXXXXXXXXXXXXXXXXXXXXXXXXXXXXXXXXXXXXXX ",
" XXXXXXXXXXXXXXXXXXXXXXXXXXXXXXXXXXXXXXXXXXXXXXXXXXXXXXXXXXXXXX ",
"                                                                "
};
