/* XPM */
static char *collectible[] = {
/* columns rows colors chars-per-pixel */
"32 32 3 1 ",
"  c None",
". c #3F2832",
"X c #FFE762",
/* pixels */
"                                ",
"                                ",
"                                ",
"                                ",
"                                ",
"       XXXXXXXXXXXXXXXXXX       ",
"       XXXXXXXXXXXXXXXXXX       ",
"       ..X...X.XX.XX..X..       ",
"       .XX.X.X.XX.XX.XX.X       ",
"       .XX.X.X.XX.XX..X.X       ",
"       .XX.X.X.XX.XX.XX.X       ",
"       ..X...X..X..X..X..       ",
"       XXXXXXXXXXXXXXXXXX       ",
"       XXXXXXXXXXXXXXXXXX       ",
"       XX..............XX       ",
"       XX..............XX       ",
"       XX..............XX       ",
"       XXXXXXX....XXXXXXX       ",
"       XXXXXXX....XXXXXXX       ",
"       XXXXXXX....XXXXXXX       ",
"       XXXXXXX....XXXXXXX       ",
"       XXXXXXX....XXXXXXX       ",
"       XXXXXXX....XXXXXXX       ",
"       XXXXXXXXXXXXXXXXXX       ",
"                                ",
"                                ",
"                                ",
"                                ",
"                                ",
"                                ",
"                                ",
"                                "
};
