/* XPM */
static char *exit[] = {
/* columns rows colors chars-per-pixel */
"64 64 3 1 ",
"  c #193D3F",
". c #327345",
"X c #63C64D",
/* pixels */
"                                                                ",
" .............................................................. ",
" .............................................................. ",
" .............................................................. ",
" .............................................................. ",
" .............................................................. ",
" .............................................................. ",
" .............................................................. ",
" .............................................................. ",
" .............................................................. ",
" ............XXXXXXXXXXXXXXXXXXXXXXXXXXXXX..................... ",
" ............XXXXXXXXXXXXXXXXXXXXXXXXXXXXX .................... ",
" ............XXXXXXXXXXXXXXXXXXXXXXXXXXXXX .................... ",
" ............XXXXXXXXXXXXXXXXXXXXXXXXXXXXX .................... ",
" ............XXXXXXXXXXXXXXXXXXXXXXXXXXXXX .................... ",
" ............XXXXXXXXXXXXXXXXXXXXXXXXXXXXX .................... ",
" ............XXXXXX                        .................... ",
" ............XXXXXX............................................ ",
" ............XXXXXX............................................ ",
" ............XXXXXX............................................ ",
" ............XXXXXX............................................ ",
" ............XXXXXX............................................ ",
" ............XXXXXX............................................ ",
" ............XXXXXX............................................ ",
" ............XXXXXX............................................ ",
" ............XXXXXX............................................ ",
" ............XXXXXX............................................ ",
" ............XXXXXXXXXXXXXXX................................... ",
" ............XXXXXXXXXXXXXXX .................................. ",
" ............XXXXXXXXXXXXXXX .................................. ",
" ............XXXXXXXXXXXXXXX .................................. ",
" ............XXXXXXXXXXXXXXX .................................. ",
" ............XXXXXXXXXXXXXXX .................................. ",
" ............XXXXXX          .................................. ",
" ............XXXXXX ........................................... ",
" ............XXXXXX ........................................... ",
" ............XXXXXX ........................................... ",
" ............XXXXXX ........................................... ",
" ............XXXXXX ........................................... ",
" ............XXXXXX ........................................... ",
" ............XXXXXX ........................................... ",
" ............XXXXXX ........................................... ",
" ............XXXXXX ........................................... ",
" ............XXXXXXXXXXXXXXXXXXXXXXXXXXXXX..................... ",
" ............XXXXXXXXXXXXXXXXXXXXXXXXXXXXX .................... ",
" ............XXXXXXXXXXXXXXXXXXXXXXXXXXXXX .................... ",
" ............XXXXXXXXXXXXXXXXXXXXXXXXXXXXX .................... ",
" ............XXXXXXXXXXXXXXXXXXXXXXXXXXXXX .................... ",
" ............XXXXXXXXXXXXXXXXXXXXXXXXXXXXX .................... ",
" .............                             .................... ",
" .............................................................. ",
" .............................................................. ",
" .............................................................. ",
" .............................................................. ",
" .............................................................. ",
" .............................................................. ",
" .............................................................. ",
" .............................................................. ",
" .............................................................. ",
" .............................................................. ",
" .............................................................. ",
" .............................................................. ",
" .............................................................. ",
"                                                                "
};
