/* XPM */
static char *exit[] = {
/* columns rows colors chars-per-pixel */
"32 32 4 1 ",
"  c None",
". c #63C64D",
"X c #E4A672",
"o c white",
/* pixels */
"                                ",
"                                ",
"                                ",
"                                ",
"        oooooooooooooooo        ",
"        oooooooooooooooo        ",
"        oooooooooooooooo        ",
"        oooooooooooooooo        ",
"        oooooooooooooooo        ",
"        o..o.oo.o...o...        ",
"        o.oo....oo.ooo.o        ",
"        o..oo..ooo.ooo.o        ",
"        o.ooo...oo.ooo.o        ",
"        o..o..o.o...oo.o        ",
"        oooooooooooooooo        ",
"        oooooooooooooooo        ",
"        oooooooooooooooo        ",
"        oooooooooooooooo        ",
"        ooooooooooooXXoo        ",
"        ooooooooooooXXoo        ",
"        oooooooooooooooo        ",
"        oooooooooooooooo        ",
"        oooooooooooooooo        ",
"        oooooooooooooooo        ",
"        oooooooooooooooo        ",
"        oooooooooooooooo        ",
"        oooooooooooooooo        ",
"        oooooooooooooooo        ",
"        oooooooooooooooo        ",
"        oooooooooooooooo        ",
"        oooooooooooooooo        ",
"        oooooooooooooooo        "
};
