/* XPM */
static char *exit[] = {
/* columns rows colors chars-per-pixel */
"32 64 189 2 ",
"   c None",
".  c #191E32",
"X  c #1E2130",
"o  c #1F2238",
"O  c #232432",
"+  c #282734",
"@  c #2C2A35",
"#  c #26283F",
"$  c #2D2C3E",
"%  c #322D37",
"&  c #342F39",
"*  c #353039",
"=  c #3E363C",
"-  c #463B3B",
";  c #41373C",
":  c #4D403C",
">  c #2C2B42",
",  c #2F2C49",
"<  c #302C49",
"1  c #35324B",
"2  c #3A354B",
"3  c #3D394D",
"4  c #363344",
"5  c #393353",
"6  c #3E3A55",
"7  c #373653",
"8  c #423B40",
"9  c #413B49",
"0  c #493D43",
"q  c #423D54",
"w  c #423D5C",
"e  c #4B3E5C",
"r  c #4B3D66",
"t  c #4D4344",
"y  c #544645",
"u  c #5C4944",
"i  c #54464A",
"p  c #5B4948",
"a  c #464052",
"s  c #4C425D",
"d  c #474157",
"f  c #53445D",
"g  c #564B5F",
"h  c #5C4A5A",
"j  c #584957",
"k  c #604E4A",
"l  c #634D45",
"z  c #655043",
"x  c #6B5345",
"c  c #6D5D49",
"v  c #715746",
"b  c #745A47",
"n  c #7A5E47",
"m  c #7C5D4B",
"M  c #725A4B",
"N  c #634D59",
"B  c #6E5A5D",
"V  c #74614B",
"C  c #7D614A",
"Z  c #7F694F",
"A  c #796756",
"S  c #7E645E",
"D  c #4B4464",
"F  c #4F4867",
"G  c #4F446B",
"H  c #4F496B",
"J  c #474365",
"K  c #544663",
"L  c #5C4B63",
"P  c #50416C",
"I  c #524B6D",
"U  c #564673",
"Y  c #554D72",
"T  c #5B4D72",
"R  c #5C4C7A",
"E  c #594675",
"W  c #5A5176",
"Q  c #614D6B",
"!  c #624C66",
"~  c #675569",
"^  c #654E70",
"/  c #624C7D",
"(  c #684F7C",
")  c #695073",
"_  c #6E5F77",
"`  c #63547D",
"'  c #6A537D",
"]  c #6B597D",
"[  c #715673",
"{  c #76587E",
"}  c #77597C",
"|  c #745869",
" . c #76646F",
".. c #84654A",
"X. c #89664C",
"o. c #866A4E",
"O. c #8B694C",
"+. c #98724E",
"@. c #8A6C55",
"#. c #966F51",
"$. c #8B7555",
"%. c #957452",
"&. c #9D7451",
"*. c #9C7B54",
"=. c #937A55",
"-. c #A0754F",
";. c #A17651",
":. c #A67C56",
">. c #AA7C53",
",. c #936F62",
"<. c #9C835B",
"1. c #A58056",
"2. c #A1865B",
"3. c #A48A5E",
"4. c #AC895B",
"5. c #B18A5C",
"6. c #B48A5A",
"7. c #AD905F",
"8. c #AA8F61",
"9. c #AC9061",
"0. c #B39763",
"q. c #BC9C65",
"w. c #B99762",
"e. c #C29D64",
"r. c #CAA266",
"t. c #C6A569",
"y. c #CEAA6B",
"u. c #C4A166",
"i. c #D3AD6C",
"p. c #D0A769",
"a. c #D5B16E",
"s. c #DAB46F",
"d. c #644E80",
"f. c #655181",
"g. c #6A5385",
"h. c #6D558B",
"j. c #7C5C85",
"k. c #70558A",
"l. c #71588D",
"z. c #7A5F8D",
"x. c #725692",
"c. c #755993",
"v. c #795A97",
"b. c #7C5C99",
"n. c #7E638A",
"m. c #805F81",
"M. c #805E97",
"N. c #846284",
"B. c #836D82",
"V. c #86638C",
"C. c #89658D",
"Z. c #8E688E",
"A. c #956C8F",
"S. c #897185",
"D. c #8D7488",
"F. c #967B8C",
"G. c #846394",
"H. c #8B6793",
"J. c #86629A",
"K. c #946C93",
"L. c #996E95",
"P. c #946B9C",
"I. c #996E9C",
"U. c #9D7196",
"Y. c #957993",
"T. c #9C7C94",
"R. c #9D719C",
"E. c #957792",
"W. c #A3759D",
"Q. c #A9799E",
"!. c #A17E9B",
"~. c #9E8195",
"^. c #A0818F",
"/. c #A08397",
"(. c #A4839C",
"). c #AD8B9E",
"_. c #AB8BA1",
"`. c #B38DAA",
"'. c #B68EA7",
"]. c #B792AA",
"[. c #C096AE",
"{. c #CB9EB7",
"}. c #C69CB5",
"|. c #CAA3BA",
" X c #D1A2BC",
".X c #D5A7C0",
"XX c #D9A9C1",
"oX c #D8A8C1",
"OX c #E1B2C8",
/* pixels */
"                                                                ",
"                                                                ",
"                                                                ",
"                                                                ",
"                                                                ",
"                                                                ",
"                                                                ",
"                                                                ",
"                                                                ",
"                                                                ",
"                                                                ",
"                                                                ",
"                                                                ",
"                  > a ~ !             ~ ~ a >                   ",
"              q S./.}. X'.            ].{.[.).S.q               ",
"              D }. XE.`.B.$ 2 f e 2 $ B.`.`.XX`.s               ",
"              K f._ W W D D V.Z.Z.C.K D W ` _ ' r               ",
"              r / D I Y I K ] I K ] K I I Y D / r               ",
"      F./.f f / K I I F F I I I I H F F H Y Y K ( f s /.F.      ",
"    L {.XXT.N.G.D H I D H D q D D q D H D I I D G.N.T.XX{.L     ",
"    B.XX'.L f W Y D w 9 p C b x ..O.C k 9 d D Y T f g '.XXB.    ",
"    D.|.Y.$ $ F Y 3 = n &.1.*.1.5.*.:.1...y 3 Y F $ $ Y.|.D.    ",
"    w l.h.2 2 q 3 b 7.q.w.e.t.i.y.u.e.w.q.1...i q 2 2 h.l.w     ",
"    r l.c.e 2 $ u ..q.i.i.q.t.p.t.q.q.i.s.e.%.x $ 2 e c.l.r     ",
"    w h./ 5 4 0 X.4.e.i.a.t.y.i.y.t.t.a.a.r.4.m 8 $ 6 / h.w     ",
"    > ( ' g ~.).S C *.0.u.7.r.r.0.0.q.r.q.*.n B T.S.g ' / >     ",
"    > N.f _..XOX_.p e.a.i.9.3.q.0.1.8.a.i.6.i _. X X/.f N.$     ",
"    . ! ! R.n.D.n.L *.i.1. .).T.^._. .<.y.*.! z.D.C.R.! ! .     ",
"    o E T I.L.[ d.L +.r.$.T.{. XOXXXT.$.i.*.L d.[ L.I.T E o     ",
"      U z.I.Q.R.k.^ | @.y Y.T././.!.Y.i ,.~ ^ k.R.Q.I.z.U       ",
"      G G.Q.Q.C.e K.R.L.f A.C.N.N.H.A.K K.I.K.e C.Q.Q.J.K       ",
"      w l.P.I.L.j.I.I.U.} Q.R.Q.Q.Q.Q.' K.R.I.j.U.Q.R.l.w       ",
"      , f.J.I.R.P.Q.Q.U.V.P.P.R.Q.R.R.V.K.Q.Q.P.R.R.J.d.<       ",
"        5 f.P.Q.Q.R.R.R.Q.I.Q.!.Q.R.Q.!.I.I.R.Q.Q.P.d.5         ",
"          > } R.P.Q.Q.P.I.I.Q.Q.I.R.R.Q.P.Q.Q.P.R.} >           ",
"            > ) P.Q.R.P.I.Q.Q.I.I.Q.Q.I.P.I.R.P.) >             ",
"              # K j.R.Q.Q.I.R.I.R.R.P.R.Q.R.j.K #               ",
"              w G 6 e [ } j.A.A.A.A.m.} [ e 6 D w               ",
"              w D Y H w 6 1 1 2 2 1 1 6 w H Y D w               ",
"              w F I Y I Y Y s Y Y s I W I Y I F w               ",
"              6 I T f.` I I D I I F T Y R f.T I w               ",
"            . 6 D f.b.b.v.h.h.` k.c.l.h.c.b.f.D 6 .             ",
"            O 6 T c.c.l.h.d.' ] j.f.d.h.l.b.c.Y 6 O             ",
"            = 6 I h.c.R f A <.8.9.1.A f R l.h.I 3 =             ",
"          = u 6 Y f.x.j c c o.C C o.c c j x.h.Y 6 u =           ",
"          O m i G h./ t b ;.&.-.+.&.;.b t / l.G i m O           ",
"          O x ..a h.R - ;.z * 4 4 & z ;.- R h.a ..x O           ",
"          @ ; Z <.L K b x 7 6 R R 5 7 x v K L <.Z ; @           ",
"          % l x =.9.8 m t R / M.M.f.R t m 8 7.=.x l %           ",
"          * m X...C V C h c.z.P.P.c.x.h C V V m X.m *           ",
"          & m &.&.*.1...N b.H.P.R.G.v.N ..1.%.#.&.m &           ",
"          & M :.:.5.1...N b.j.R.R.P.b.N ..1.5.:.:.M &           ",
"          + u &.>.5.3...N x.f.I.P.J.v.N ..3.5.>.#.u +           ",
"            @ u +.@.1...g x.k.J.J.c.x.h ..1.*.&.x @             ",
"              X ....o.x N h./ c.b.d.h.N b $.c : @               ",
"                - : O @ & 5 5 U / 5 7 & @ + X                   ",
"                                                                ",
"                                                                ",
"                                                                ",
"                                                                ",
"                                                                ",
"                                                                ",
"                                                                ",
"                                                                "
};
