/* XPM */
static char *player[] = {
/* columns rows colors chars-per-pixel */
"64 64 185 2 ",
"   c None",
".  c #151B2D",
"X  c #191E2F",
"o  c #1A1E32",
"O  c #1D2234",
"+  c #1F2338",
"@  c #222634",
"#  c #252834",
"$  c #2A2C37",
"%  c #23253B",
"&  c #26283E",
"*  c #2B2B3A",
"=  c #2C303C",
"-  c #33333D",
";  c #282741",
":  c #2C2B44",
">  c #322D44",
",  c #342F4D",
"<  c #2F3443",
"1  c #353940",
"2  c #35324D",
"3  c #393646",
"4  c #352E50",
"5  c #373450",
"6  c #3C3356",
"7  c #3F3857",
"8  c #3E3359",
"9  c #413D42",
"0  c #463A55",
"q  c #433B5C",
"w  c #4B3B5D",
"e  c #41365B",
"r  c #463A61",
"t  c #4B3D64",
"y  c #4E3C69",
"u  c #513F6B",
"i  c #454144",
"p  c #4A4546",
"a  c #4E4947",
"s  c #43434A",
"d  c #4E4B4B",
"f  c #4F4649",
"g  c #534C4A",
"h  c #5C4F4F",
"j  c #5A534C",
"k  c #494859",
"l  c #414259",
"z  c #534F53",
"x  c #525250",
"c  c #595856",
"v  c #605350",
"b  c #645B52",
"n  c #6A5F53",
"m  c #6F6457",
"M  c #64635A",
"N  c #6B635B",
"B  c #74655A",
"V  c #746A5B",
"C  c #7D6E5C",
"Z  c #7C675E",
"A  c #7F715E",
"S  c #564362",
"D  c #594265",
"F  c #4F5462",
"G  c #564371",
"H  c #594675",
"J  c #5D477A",
"K  c #6A4D76",
"L  c #654A7A",
"P  c #6F5073",
"I  c #785579",
"U  c #6C6C60",
"Y  c #756268",
"T  c #777767",
"R  c #787767",
"E  c #6B6C70",
"W  c #6F7273",
"Q  c #7C797A",
"!  c #80715E",
"~  c #8A7364",
"^  c #867864",
"/  c #807466",
"(  c #917E65",
")  c #8C7273",
"_  c #89816C",
"`  c #85816E",
"'  c #958067",
"]  c #93856C",
"[  c #9A8569",
"{  c #9E886A",
"}  c #988F75",
"|  c #9C9577",
" . c #A2876E",
".. c #A48C6D",
"X. c #A48770",
"o. c #A88B72",
"O. c #A29172",
"+. c #AC9471",
"@. c #A09779",
"#. c #A79B7B",
"$. c #B79B76",
"%. c #BDA17B",
"&. c #C4A67C",
"*. c #C5A87E",
"=. c #CAAB7E",
"-. c #694D86",
";. c #6E4E8B",
":. c #664B83",
">. c #6F508D",
",. c #745287",
"<. c #6E4D90",
"1. c #765294",
"2. c #7A5496",
"3. c #7A5498",
"4. c #7F5C93",
"5. c #855C89",
"6. c #825B82",
"7. c #815997",
"8. c #885D97",
"9. c #896484",
"0. c #9A698F",
"q. c #91638F",
"w. c #886095",
"e. c #946E94",
"r. c #9B699B",
"t. c #976795",
"y. c #A26E98",
"u. c #A9719C",
"i. c #87888A",
"p. c #9F9980",
"a. c #AF8D89",
"s. c #B08C8B",
"d. c #A49D83",
"f. c #A58797",
"g. c #AC8995",
"h. c #A09B93",
"j. c #B8949C",
"k. c #ABA289",
"l. c #B0A38D",
"z. c #BEAC89",
"x. c #B2A896",
"c. c #B9B09E",
"v. c #C4A387",
"b. c #CDAE82",
"n. c #CEB181",
"m. c #C7B188",
"M. c #D5B583",
"N. c #D8B784",
"B. c #D8BA87",
"V. c #DBBE89",
"C. c #C8AB9B",
"Z. c #C8B09F",
"A. c #CFBF9C",
"S. c #DDC28D",
"D. c #D5C494",
"F. c #DFC490",
"G. c #DDC89A",
"H. c #E0C794",
"J. c #E1C994",
"K. c #E3CD99",
"L. c #E4D39C",
"P. c #E9D49E",
"I. c #C6C3A8",
"U. c #DFC6A0",
"Y. c #DACEA1",
"T. c #DFD2AB",
"R. c #CAC6B7",
"E. c #D8D0BF",
"W. c #ECDBA4",
"Q. c #E6D9A8",
"!. c #E7D7A8",
"~. c #E9DCBF",
"^. c #F1E4AF",
"/. c #F1E4B3",
"(. c #F3E7BA",
"). c #F7EABB",
"_. c #DED8C7",
"`. c #D8D5C7",
"'. c #E3DECB",
"]. c #F2E7C7",
"[. c #F5EAC7",
"{. c #FAF0CB",
"}. c #F5EDD3",
"|. c #F5EEDE",
" X c #F8F2DE",
/* pixels */
"                                                                                                                                ",
"                                                                                                                                ",
"                                                                                                                                ",
"                                                                                                                                ",
"                                                                                                                                ",
"                                                                                                                                ",
"                                                                                                                                ",
"                                                                                                                                ",
"                                                                                                                                ",
"                                                                                                                                ",
"                                                                                                                                ",
"                                                                                                                                ",
"                                                                                                                                ",
"                                                                                                                                ",
"                                                                                                                                ",
"                                                    . 8 w *                                                                     ",
"                                                  O 8 ,.t.5.P w                                                                 ",
"                                                o r 1.r.u.r.r.y.K                                                               ",
"                                                : :.;.K I 0.r.q.t.w                                                             ",
"                                                8 ;.e & O > 9.6.I I                                                             ",
"                                                : L G q 2 . > 5.S K &                                                           ",
"                                                o : 2 2 & . o u t t &                                                           ",
"                                                    . .     X 8 8 :                                                             ",
"                                                        d / k l 5 Q E O                     N.                                  ",
"                                                      @ z x.'._.`.'.l.i                   U.d.                                  ",
"                                                    . f  .D.^.(.}. X].m.i               l.|.W                                   ",
"                                                    @ Z %.F.W./.(.'.h.!._             O.`.}.U                                   ",
"                                                    * ~ =.N.H.W.(._.s z.k.@           c.}.G.M                                   ",
"                                                    9 X.N.N.N.J.).'.< A A.s         1 I.K.O.=                                   ",
"                                          @ a     . - ~ &.&.[ ] d.i.O * x O         T L.n.g                                     ",
"                                          o j ! $ . O B $.n.#.M 1 = o X N x       1 d.%.[ @                                     ",
"                                          4 y Y C - X h o.&.V.J.Y.`.F a !.p.      R } ..j                                       ",
"                                          8 1.;.) [ B g N [ N.B.W.[.E ] (._ &   - @.^ ( @                                       ",
"                                          8 2.7.a.{ V V | 3 ..n.P./.R.!.D.s D w n m ( j                                         ",
"                                          8 1.8.C.J.b.V / = @ a #.Q.{.!.b 0 K 3 C g B @                                         ",
"                                          0 4.2.j.K.V.{ ! - : + @ d ` c 5 8 L G > i 3 &                                         ",
"                                          b v.f.g.S.V.$.' 1 H H 7 & o 2 H : 3 t q : & , &                                       ",
"                                          g n.L.Z.s.b.$...- J 3.;.G r J 8 @ ~ { i : : O                                         ",
"                                          $ +.S.C.t.e.Y ! - t -.1.>.-.r o O ~ N.+.# o                                           ",
"                                            j =.v.w.3.G v * & : : : ; o   O - g i O                                             ",
"                                              b &.e.<.S 9 . . . . . .     O & .                                                 ",
"                                                b 9.w $ X . .   . . .                                                           ",
"                                                  * - @   . .   . . .                                                           ",
"                                                    .                                                                           ",
"                                                                                                                                ",
"                                                                                                                                ",
"                                                                                                                                ",
"                                                                                                                                ",
"                                                                                                                                ",
"                                                                                                                                ",
"                                                                                                                                ",
"                                                                                                                                ",
"                                                                                                                                ",
"                                                                                                                                ",
"                                                                                                                                ",
"                                                                                                                                ",
"                                                                                                                                ",
"                                                                                                                                ",
"                                                                                                                                ",
"                                                                                                                                ",
"                                                                                                                                ",
"                                                                                                                                ",
"                                                                                                                                ",
"                                                                                                                                "
};
