/* XPM */
static char *player[] = {
/* columns rows colors chars-per-pixel */
"64 62 183 2 ",
"   c #010001",
".  c #0B0203",
"X  c #080907",
"o  c #0D0B0B",
"O  c #030C0B",
"+  c #140304",
"@  c #100F0F",
"#  c #1E0809",
"$  c #190707",
"%  c #13110E",
"&  c #141211",
"*  c #191615",
"=  c #191817",
"-  c #1A1718",
";  c #1C1C1B",
":  c #2A0000",
">  c #230909",
",  c #2D0A0B",
"<  c #230807",
"1  c #330B0C",
"2  c #3C0D0E",
"3  c #201D1B",
"4  c #2D1919",
"5  c #3F1114",
"6  c #25201E",
"7  c #282827",
"8  c #2D2C2B",
"9  c #282927",
"0  c #302F2C",
"q  c #2D302C",
"w  c #32312F",
"e  c #343331",
"r  c #393532",
"t  c #383834",
"y  c #3E3C3A",
"u  c #420E0E",
"i  c #420E11",
"p  c #4C1113",
"a  c #541214",
"s  c #581013",
"d  c #5D1519",
"f  c #5B1A1E",
"g  c #680A0E",
"h  c #660F13",
"j  c #641718",
"k  c #6C1618",
"l  c #6C1A1B",
"z  c #681717",
"x  c #75191B",
"c  c #7C1B1D",
"v  c #7B1F21",
"b  c #403B37",
"n  c #442B29",
"m  c #3F403C",
"M  c #45423F",
"N  c #4B4742",
"B  c #4D4946",
"V  c #484746",
"C  c #524B47",
"Z  c #514C49",
"A  c #5A5652",
"S  c #5E5A56",
"D  c #635D59",
"F  c #6A635E",
"G  c #64645F",
"H  c #6C6561",
"J  c #6C6862",
"K  c #716B66",
"L  c #736D69",
"P  c #706763",
"I  c #7B746E",
"U  c #7B7772",
"Y  c #7F7973",
"T  c #841C1D",
"R  c #891D1E",
"E  c #961B1D",
"W  c #8F1F21",
"Q  c #811D20",
"!  c #941E23",
"~  c #872021",
"^  c #8C2123",
"/  c #932122",
"(  c #9D2124",
")  c #9C2429",
"_  c #A12124",
"`  c #A32529",
"'  c #AD2529",
"]  c #AB2327",
"[  c #B42428",
"{  c #BE282A",
"}  c #B82528",
"|  c #C5282C",
" . c #CD2A2D",
".. c #C22729",
"X. c #DF272A",
"o. c #D32A2D",
"O. c #DE292B",
"+. c #D2262D",
"@. c #CE2930",
"#. c #DC2C31",
"$. c #D12B32",
"%. c #E32325",
"&. c #E22827",
"*. c #E1272B",
"=. c #E2282B",
"-. c #EC2B2D",
";. c #F02B2E",
":. c #E42D31",
">. c #EB2C30",
",. c #F02C30",
"<. c #FF393B",
"1. c #807670",
"2. c #847C75",
"3. c #867F79",
"4. c #DB4448",
"5. c #DB4447",
"6. c #8A837B",
"7. c #8F8680",
"8. c #938D86",
"9. c #958E89",
"0. c #95928B",
"q. c #9C948C",
"w. c #9C998E",
"e. c #9F9790",
"r. c #9D9890",
"t. c #A39B93",
"y. c #A79F99",
"u. c #A9A097",
"i. c #ACA49C",
"p. c #B2A99E",
"a. c #B0A69E",
"s. c #AFA6A0",
"d. c #B3AAA2",
"f. c #B9AFA6",
"g. c #BCB4AA",
"h. c #BEB2A7",
"j. c #C1B7AF",
"k. c #C1B9AD",
"l. c #C5BEB2",
"z. c #C8BDB6",
"x. c #CAC3B6",
"c. c #CCC3B9",
"v. c #D2C9BB",
"b. c #CEC8C0",
"n. c #D4CDC2",
"m. c #D9CEC1",
"M. c #DCD1C4",
"N. c #DED5CA",
"B. c #DED8CA",
"V. c #E3D6C9",
"C. c #E3D9CD",
"Z. c #E9DBCE",
"A. c #EBDFD1",
"S. c #ECE3D5",
"D. c #EBE4D9",
"F. c #EDE8DC",
"G. c #F5EADC",
"H. c #FBEEDE",
"J. c #F1E6D8",
"K. c #FDF0DF",
"L. c #FCEFE1",
"P. c #F7ECE0",
"I. c #FFF3E2",
"U. c #FEF0E1",
"Y. c #FEF2E2",
"T. c #FFF8E7",
"R. c #FFF6EA",
"E. c #FFFAE9",
"W. c #FFFCEC",
"Q. c #FFFDEC",
"!. c #FFFDED",
"~. c #FFFEEC",
"^. c #FFFFEF",
"/. c #FFFCEC",
"(. c #FFFFF0",
"). c #FFFFF1",
"_. c #FFFFF2",
"`. c #FFFFF6",
"'. c #FFFFF2",
"]. c #FFFFF9",
"[. c #FFFFFA",
"{. c #FFFFFD",
"}. c #FFFFFC",
/* pixels */
"=.=.=.=.=.=.=.=.=.=.=.=.=.=.=.=.=.=.=.=.=.=.=.=.=.=.=.=.=.=.=.=.=.=.=.=.=.=.=.=.=.=.=.=.=.=.=.=.=.=.=.=.=.=.=.=.=.=.=.=.=.=.=.=.",
"=.=.=.=.=.=.=.=.=.=.=.=.=.=.=.=.=.=.=.=.=.=.=.=.=.=.=.=.=.=.=.=.=.=.=.=.=.=.=.=.=.=.=.=.=.=.=.=.=.=.=.=.=.=.=.=.=.=.=.=.=.=.=.=.",
"=.=.=.=.=.=.=.=.=.=.=.=.=.=.=.=.=.=.=.=.=.=.=.=.=.=.=.=.=.=.=.=.=.=.=.=.=.=.=.=.=.=.=.=.=.=.=.=.=.=.=.=.=.=.=.=.=.=.=.=.=.=.=.=.",
"=.=.=.=.=.=.=.=.=.=.=.=.=.=.=.=.=.=.=.=.=.=.=.=.=.=.=.=.=.=.=.=.=.=.=.=.=.=.=.=.=.=.=.=.=.=.=.=.=.=.=.=.=.=.=.=.=.=.=.=.=.=.=.=.",
"=.=.=.=.=.=.=.=.=.=.=.=.=.=.=.=.=.=.=.=.=.=.=.=.=.=.=.=.=.=.=.=.=.=.=.=.=.=.=.=.=.=.=.=.=.=.=.=.=.=.=.=.=.=.=.=.=.=.=.=.=.=.=.=.",
"=.=.=.=.=.=.=.=.=.=.=.=.=.=.=.=.=.=.=.=.=.=.=.=.=.=.=.=.=.=.=.=.=.=.=.=.=.=.=.=.=.=.=.=.=.=.=.=.=.=.=.=.=.=.=.=.=.=.=.=.=.=.=.=.",
"=.=.=.=.=.=.=.=.=.=.=.=.=.=.=.=.=.=.=.=.=.=.=.=.=.X.=.=.=.=.=.X.=.=.=.=.=.=.=.=.=.=.=.=.=.=.=.=.=.=.=.=.=.=.=.=.=.=.=.=.=.=.=.=.",
"=.=.=.=.=.=.=.=.=.=.=.=.=.=.=.=.=.=.=.=.=.=.=.=.=.;.=.o.o.O.-.;.-.=.=.=.=.=.=.=.=.=.=.=.=.=.=.=.=.=.=.=.=.=.=.=.=.=.=.=.=.=.=.=.",
"=.=.=.=.=.=.=.=.=.=.=.=.=.=.=.=.=.=.=.=.=.=.=.-.O.R 2 < # , p c [ =.-.-.=.O.=.=.=.=.=.=.=.=.=.=.=.=.=.=.=.=.=.=.=.=.=.=.=.=.=.=.",
"=.=.=.=.=.=.=.=.=.=.=.=.=.=.=.=.=.=.=.=.=.=.>.! <                 , l ' O.-.-.-.=.=.X.X.X.=.=.-.O.+.-.=.=.=.=.=.=.=.=.=.=.=.=.=.",
"=.=.=.=.=.=.=.=.=.=.=.=.=.=.=.=.=.=.=.=.-.O.a                           , j _ | O.-.-.;.-.-.=.| a + ' -.=.=.=.=.=.=.=.=.=.=.=.=.",
"=.=.=.=.=.=.=.=.=.=.=.=.=.=.=.=.=.=.=.-. .1                                   + , a k x k a 1 .     + { -.=.=.=.=.=.=.=.=.=.=.=.",
"=.=.=.=.=.=.=.=.=.=.=.=.=.=.=.=.=.=.=.| <                                                             i =.=.=.=.=.=.=.=.=.=.=.=.",
"=.=.=.=.=.=.=.=.=.=.=.=.=.=.=.=.=.=.-.p                                                                 ] -.=.=.=.=.=.=.=.=.=.=.",
"=.=.=.=.=.=.=.=.=.=.=.=.=.=.=.=.=.&.>.2                                                                 z -.=.=.=.=.=.=.=.=.=.=.",
"=.=.=.=.=.=.=.=.=.=.=.=.=.=.=.X.-.#.c +                                                                 u =.=.=.=.=.=.=.=.=.=.=.",
"=.=.=.=.=.=.=.=.=.=.=.=.=.=.=.-.[ ,                                                                     1 =.=.=.=.=.=.=.=.=.=.=.",
"=.=.=.=.=.=.=.=.=.=.=.=.=.=.-.~ .                                                                       u >.=.=.=.=.=.=.=.=.=.=.",
"=.=.=.=.=.=.=.=.=.=.=.=.O.-.c                                                                           x >.X.=.=.=.=.=.=.=.=.=.",
"=.=.=.=.=.=.=.=.=.=.=.O.-.!                                                                           . ..-.=.=.=.=.=.=.=.=.=.=.",
"=.=.=.=.=.=.=.=.=.=.=.=.@.$                           K ;                                   7 ;       R -.X.=.=.=.=.=.=.=.=.=.=.",
"=.=.=.=.=.=.=.=.=.=.=.;._                           Z `.S.e.B =                       * B d.r.        ( -.X.=.=.=.=.=.=.=.=.=.=.",
"=.=.=.=.=.=.=.=.=.=.=.-./                         6 S.I.I.~.~.D.l.t.3.H C N B A L 0.l.S.{.s.          1 :.=.=.=.=.=.=.=.=.=.=.=.",
"=.=.=.=.=.=.=.=.=.=.X.-._                       & V.~.H.I.H.L.I.~.{.S.J.{.~.~.`.`.`.~.I.I.M.w           [ -.=.=.=.=.=.=.=.=.=.=.",
"=.=.=.=.=.=.=.=.=.=.=.-.[                       i.`.H.I.I.I.I.I.S.N     I I.H.H.H.H.H.I.H.~.S.*         R ;.X.=.=.=.=.=.=.=.=.=.",
"=.=.=.=.=.=.=.=.=.=.=.=. .+                   e R.H.I.I.I.I.H.~.v.8.b.8.% V.T.I.I.I.I.I.I.H.`.i.        x ;.=.=.=.=.=.=.=.=.=.=.",
"=.=.=.=.=.=.=.=.=.=.=.=.=.,                   2.`.H.I.I.I.I.I.L.I.~.~.`.M.J.I.I.I.I.I.I.H.H.I.L.7       R ;.=.=.=.=.=.=.=.=.=.=.",
"=.=.=.=.=.=.=.=.=.=.=.=.-.a                   a.~.H.I.I.I.I.I.H.R.~.~.H.R.I.I.I.I.I.K.I.`.~.H.`.F       } -.=.=.=.=.=.=.=.=.=.=.",
"=.=.=.=.=.=.=.=.=.=.=.O.-.c                   j.~.H.I.I.I.I.H.~.x.N 9.~.H.I.I.I.I.I.I.J.d.i.L.`.8.    1 =.=.=.=.=.=.=.=.=.=.=.=.",
"=.=.=.=.=.=.=.=.=.=.=.=.-.(   .               g.~.H.I.I.I.H.~.n.X     k.~.H.I.I.I.H.~.c.t * S {.t.    x -.=.=.=.=.=.=.=.=.=.=.=.",
"=.=.=.=.=.=.=.=.=.=.=.=.-.[ .                 t.`.H.I.I.I.H.I.r   o   2.`.H.I.I.I.I.H.I.`.~.2.J.t.  . { -.=.=.=.=.=.=.=.=.=.=.=.",
"=.=.=.=.=.=.=.=.=.=.=.=.o.2   N i.g.y.B       H `.H.I.I.I.H.~.L       P `.H.I.I.I.H.I.J.c.I.H.~.7.  5 =.&.=.=.=.=.=.=.=.=.=.=.=.",
"=.=.=.=.=.=.=.=.=.=.O.>.l   U `.`.{.`.~.w.    g.~.H.I.I.H.I.m.l.M     1.`.H.I.I.H.I.J.r   i.~.~.F   ^ -.=.=.=.=.=.=.=.=.=.=.=.=.",
"=.=.=.=.=.=.=.=.=.=.=. .. q ~.I.Z.t.c.~.{.2.q.`.H.I.I.I.H.`.H   @ .   i.~.H.I.I.L.R.Z     A ~.I.t . o.-.=.=.=.=.=.=.=.=.=.=.=.=.",
"=.=.=.=.=.=.=.=.=.=.-.'   Y `.H.6.D ; K I.I.~.H.I.I.I.I.H.~.6.o     & S.I.L.I.H.H.~.V     Z `.Z.O s >.=.=.=.=.=.=.=.=.=.=.=.=.=.",
"=.=.=.=.=.=.=.=.=.X.-.`   8.`.J.H.`.; C I.I.H.I.I.I.I.K.~.`.~.J.c.M U `.H.I.I.~.~.x.s.3   F {.i.  ' -.O.=.=.=.=.=.=.=.=.=.=.=.=.",
"=.=.=.=.=.=.=.=.=.=.-.'   K `.H.~.p.* ~.I.H.I.I.I.I.I.~.g.7.l.I.~.I.I.I.I.I.H.h.c.7   @   q.{.V : :.=.=.=.=.=.=.=.=.=.=.=.=.=.=.",
"=.=.=.=.=.=.=.=.=.=.=.o.. ; L.I.I.B.Y I.H.I.I.I.I.H.~.U   0 t.S.I.~.K.I.L.I.v.K 3   o     S.V.  R ;.X.=.=.=.=.=.=.=.=.=.=.=.=.=.",
"=.=.=.=.=.=.=.=.=.=.=.-.l   I `.H.I.J.H.I.I.I.I.L.I.S.r 7 r `.~.n.l.I.I.I.L.I.{.g.& N.q.6.{.G + #.=.=.=.=.=.=.=.=.=.=.=.=.=.=.=.",
"=.=.=.=.=.=.=.=.=.=.=.=.o.<   2.I.`.~.L.I.I.I.I.I.I.A.i.D.  0.n.$ + 6.~.H.I.H.~.8.Z `.~.`.M.  a ;.=.=.=.=.=.=.=.=.=.=.=.=.=.=.=.",
"=.=.=.=.=.=.=.=.=.=.=.=.=.{ <   7 2.g.I.I.I.I.I.I.I.I.L.`.6.  w E o.4 D.I.K.I.I.g.S.I.H.H.I.m . | -.O.=.=.=.=.=.=.=.=.=.=.=.=.=.",
"=.=.=.=.=.=.=.=.=.=.=.=.=.-. .d     o S.I.I.I.I.I.I.I.I.H.~.D   / <.g 0.`.J.H.H.~.~.I.I.H.`.d.  Q ;.X.=.=.=.=.=.=.=.=.=.=.=.=.=.",
"=.=.=.=.=.=.=.=.=.=.=.=.=.=.=.-.$.f   t.`.H.I.I.I.I.I.I.K.I.R.K   h ] n F.{.`.`.I.k.m.I.H.~.c.  j >.X.=.=.=.=.=.=.=.=.=.=.=.=.=.",
"=.=.=.=.=.=.=.=.=.=.=.=.=.=.=.X.-.|   7 I.I.I.I.I.I.I.I.I.H.I.`.d.8 +   ; I K S Z 7.J.I.H.~.f.  x ;.X.=.=.=.=.=.=.=.=.=.=.=.=.=.",
"=.=.=.=.=.=.=.=.=.=.=.=.=.=.=.=.X.>.j   2.`.H.I.I.I.I.I.I.I.K.H.~.I.z.w.2.K Y t.Z.`.I.I.H.`.F   ` -.O.=.=.=.=.=.=.=.=.=.=.=.=.=.",
"=.=.=.=.=.=.=.=.=.=.=.=.=.=.=.=.=.=.o.#   d.`.H.L.I.I.I.I.I.I.I.H.I.~.`.`.`.`.`.I.H.I.H.`.x.  < O.=.=.=.=.=.=.=.=.=.=.=.=.=.=.=.",
"=.=.=.=.=.=.=.=.=.=.=.=.=.=.=.=.=.X.-.'     d.`.H.H.I.I.I.I.I.I.I.I.H.H.H.H.H.H.I.I.H.~.Z.;   ( -.O.=.=.=.=.=.=.=.=.=.=.=.=.=.=.",
"=.=.=.=.=.=.=.=.=.=.=.=.=.=.=.=.=.=.X.-.)     2.I.~.H.H.I.I.I.I.I.I.I.I.I.I.I.H.H.I.`.l.*   v -.=.=.=.=.=.=.=.=.=.=.=.=.=.=.=.=.",
"=.=.=.=.=.=.=.=.=.=.=.=.=.=.=.=.=.=.=.%.-.' #   e g.~.`.I.H.H.H.H.H.H.H.H.H.I.~.`.J.Y     v >.=.=.=.=.=.=.=.=.=.=.=.=.=.=.=.=.=.",
"=.=.=.=.=.=.=.=.=.=.=.=.=.=.=.=.=.=.=.O.=.-. .d     y t.Z.~.`.`.~.~.~.~.`.`.R.M.2.;   # ` -.%.=.=.=.=.=.=.=.=.=.=.=.=.=.=.=.=.=.",
"=.=.=.=.=.=.=.=.=.=.=.=.=.=.=.=.=.=.=.=.=.O.=.-.' p     O y L q.p.g.g.a.9.J e     . l o.-.O.=.=.=.=.=.=.=.=.=.=.=.=.=.=.=.=.=.=.",
"=.=.=.=.=.=.=.=.=.=.=.=.=.=.=.=.=.=.=.=.=.=.=.=.-.>.{ c 1                   . 2 ~  .>.=.=.=.=.=.=.=.=.=.=.=.=.=.=.=.=.=.=.=.=.=.",
"=.=.=.=.=.=.=.=.=.=.=.=.=.=.=.=.=.=.=.=.=.=.=.=.O.=.-.-.:. .' ^ R c c R / '  .:.;.-.O.O.=.=.=.=.=.=.=.=.=.=.=.=.=.=.=.=.=.=.=.=.",
"=.=.=.=.=.=.=.=.=.=.=.=.=.=.=.=.=.=.=.=.=.=.=.=.=.=.=.X.=.=.-.;.;.;.;.;.-.-.=.=.X.=.=.=.=.=.=.=.=.=.=.=.=.=.=.=.=.=.=.=.=.=.=.=.",
"=.=.=.=.=.=.=.=.=.=.=.=.=.=.=.=.=.=.=.=.=.=.=.=.=.=.=.=.=.=.=.O.X.X.X.X.X.=.=.=.=.=.=.=.=.=.=.=.=.=.=.=.=.=.=.=.=.=.=.=.=.=.=.=.",
"=.=.=.=.=.=.=.=.=.=.=.=.=.=.=.=.=.=.=.=.=.=.=.=.=.=.=.=.=.=.=.=.=.=.=.=.=.=.=.=.=.=.=.=.=.=.=.=.=.=.=.=.=.=.=.=.=.=.=.=.=.=.=.=.",
"=.=.=.=.=.=.=.=.=.=.=.=.=.=.=.=.=.=.=.=.=.=.=.=.=.=.=.=.=.=.=.=.=.=.=.=.=.=.=.=.=.=.=.=.=.=.=.=.=.=.=.=.=.=.=.=.=.=.=.=.=.=.=.=.",
"=.=.=.=.=.=.=.=.=.=.=.=.=.=.=.=.=.=.=.=.=.=.=.=.=.=.=.=.=.=.=.=.=.=.=.=.=.=.=.=.=.=.=.=.=.=.=.=.=.=.=.=.=.=.=.=.=.=.=.=.=.=.=.=.",
"=.=.=.=.=.=.=.=.=.=.=.=.=.=.=.=.=.=.=.=.=.=.=.=.=.=.=.=.=.=.=.=.=.=.=.=.=.=.=.=.=.=.=.=.=.=.=.=.=.=.=.=.=.=.=.=.=.=.=.=.=.=.=.=.",
"=.=.=.=.=.=.=.=.=.=.=.=.=.=.=.=.=.=.=.=.=.=.=.=.=.=.=.=.=.=.=.=.=.=.=.=.=.=.=.=.=.=.=.=.=.=.=.=.=.=.=.=.=.=.=.=.=.=.=.=.=.=.=.=.",
"%.%.%.%.%.%.%.%.%.%.%.%.%.%.%.%.%.%.%.%.%.%.%.%.%.%.%.%.%.%.%.%.%.%.%.%.%.%.%.%.%.%.%.%.%.%.%.%.%.%.%.%.%.%.%.%.%.%.%.%.%.%.%.%.",
"4.4.4.4.4.4.4.4.4.4.4.4.4.4.4.4.4.4.4.4.4.4.4.4.4.4.4.4.4.4.4.4.4.4.4.4.4.4.4.4.4.4.4.4.4.4.4.4.4.4.4.4.4.4.4.4.4.4.4.4.4.4.4.4."
};
