/* XPM */
static char *player[] = {
/* columns rows colors chars-per-pixel */
"32 32 10 1 ",
"  c None",
". c #3F2832",
"X c #327345",
"o c #9E2835",
"O c #FB922B",
"+ c #E4A672",
"@ c #FFE762",
"# c #4F6781",
"$ c #0484D1",
"% c white",
/* pixels */
"                                ",
"                                ",
"                                ",
"                                ",
"            ooooo               ",
"           ooooooo              ",
"          ooooooooo             ",
"         ooooooooooo            ",
"        ooooooooooooo  ##       ",
"          XXXXXXXXX   ##        ",
"          X%%%X%%%X   #         ",
"          XXXXXXXXX  #          ",
"         .X+XXXXX+X.##          ",
"         .XX+XXX+XX##           ",
"      ....XXX+++XX##...         ",
"   @@@....XXXXOXX##....@@@      ",
"   @@@........O..#.....@@@      ",
"   @@    .....%.##..    @@      ",
"   @@    .....%##...    @@      ",
"   @@    .....%#....    @@      ",
"  $$$$   .....#.....   $$$$     ",
"  $$$$   ...........   $$$$     ",
"         ...........            ",
"         ...........            ",
"         ...........            ",
"         ...     ...            ",
"         ...     ...            ",
"          @@     @@             ",
"          @@     @@             ",
"          @@     @@             ",
"        $$$$     $$$$           ",
"        $$$$     $$$$           "
};
