/* XPM */
static char *wall[] = {
/* columns rows colors chars-per-pixel */
"64 64 136 2 ",
"   c #2E2222",
".  c #524444",
"X  c #534545",
"o  c #544646",
"O  c #5A5252",
"+  c #635555",
"@  c #645555",
"#  c #655656",
"$  c #655757",
"%  c #665757",
"&  c #665858",
"*  c #635E5E",
"=  c #645F5F",
"-  c #675F5F",
";  c #646060",
":  c #656060",
">  c #676262",
",  c #676363",
"<  c #686464",
"1  c #696464",
"2  c #696565",
"3  c #6A6565",
"4  c #6B6666",
"5  c #6C6767",
"6  c #6C6868",
"7  c #6D6868",
"8  c #6C6C6C",
"9  c #6E6E6E",
"0  c #6F6E6E",
"q  c #6F6F6F",
"w  c #707070",
"e  c #717171",
"r  c #727272",
"t  c #737272",
"y  c #737373",
"u  c #747474",
"i  c #747575",
"p  c #757575",
"a  c #767474",
"s  c #767575",
"d  c #767676",
"f  c #777676",
"g  c #777777",
"h  c #787676",
"j  c #787777",
"k  c #797777",
"l  c #7B7676",
"z  c #7B7777",
"x  c #777878",
"c  c #787878",
"v  c #797878",
"b  c #787979",
"n  c #797979",
"m  c #7A7878",
"M  c #7B7878",
"N  c #7A7979",
"B  c #7B7979",
"V  c #7A7A7A",
"C  c #7B7A7A",
"Z  c #7B7B7B",
"A  c #7D7878",
"S  c #7C7979",
"D  c #7E7979",
"F  c #7C7A7A",
"G  c #7D7A7A",
"H  c #7C7B7B",
"J  c #7D7B7B",
"K  c #7F7A7A",
"L  c #7B7C7C",
"P  c #7C7C7C",
"I  c #7D7C7C",
"U  c #7D7D7D",
"Y  c #7E7C7C",
"T  c #7E7D7D",
"R  c #7F7D7D",
"E  c #7D7E7E",
"W  c #7E7E7E",
"Q  c #7F7E7E",
"!  c #7E7F7F",
"~  c #7F7F7F",
"^  c #817A7A",
"/  c #807B7B",
"(  c #827D7D",
")  c #807E7E",
"_  c #807F7F",
"`  c #817F7F",
"'  c #827E7E",
"]  c #7F8080",
"[  c #808080",
"{  c #818080",
"}  c #818181",
"|  c #828080",
" . c #828181",
".. c #828282",
"X. c #838282",
"o. c #828383",
"O. c #838383",
"+. c #848080",
"@. c #858181",
"#. c #868181",
"$. c #848383",
"%. c #868282",
"&. c #878282",
"*. c #838484",
"=. c #848484",
"-. c #858484",
";. c #858585",
":. c #868484",
">. c #868585",
",. c #878585",
"<. c #868686",
"1. c #878686",
"2. c #878787",
"3. c #888383",
"4. c #898585",
"5. c #8A8585",
"6. c #888787",
"7. c #878888",
"8. c #888888",
"9. c #898888",
"0. c #898989",
"q. c #8A8A8A",
"w. c #8B8A8A",
"e. c #8B8B8B",
"r. c #8D8888",
"t. c #8E8989",
"y. c #8C8B8B",
"u. c #8C8C8C",
"i. c #8D8C8C",
"p. c #8E8E8E",
"a. c #8F8F8F",
"s. c #919191",
"d. c #929191",
"f. c #939393",
"g. c #949494",
"h. c #959595",
/* pixels */
"  o & $ $ $ $ $ $ $ $ $ $ $ $ $ $ $ $ $ $ $ $ $ $ $ $ $ $ $ $ $ $ $ $ $ $ $ $ $ $ $ $ $ $ $ $ $ $ $ $ $ $ $ $ $ $ $ $ $ $ & o   ",
"o ^ 4.#.#.#.#.#.k e.#.#.#.#.#.^ ^ e.#.#.#.#.#.#.#.#.#.#.#.#.#.k e.#.#.#.#.#.^ T e.#.#.#.#.#.T #.4.#.#.#.#.#.#.#.#.#.#.#.#.#.: o ",
"& 4.#.#.#.#.#.T T e.^ #.#.#.#.T #.e.T #.#.#.#.#.#.#.#.#.#.#.T T e.^ #.#.#.#.T T e.T #.#.#.T T e.#.#.#.#.#.#.#.#.#.#.#.#.#.T 4 $ ",
"$ #.#.T T T T T f e.T T T T T T T #.T T T T T T T T T T T T T f e.T T T T T T T e.T T T T T f #.#.T T T T T T T T T T T T T 4 $ ",
"$ #.#.T T T T T x e.] ] T T ] T T e.T T T T ] ] T T T T T T T f e.#.] T T T T T e.T T T T ] x #.#.T T T T T T T T T T T T T 4 $ ",
"$ #.#.T T T T T x e.] T T T ] T T e.T T T T ] ] T T T T T T T f e.#.T T T T T T e.T T T T ] x #.#.T T T T T ] T T T T T T T 4 $ ",
"$ #.#.T ] ] T T f e.T T T T ] T T e.T T T T T ] ] ] T T ] T T f e.] T T T T T T e.T T T T #.T #.#.T ] ] ] ] ] ] T T T T T T 4 $ ",
"$ #.#.T ] ] ] T f e.T T T T ] T T #.T T T T T T T T T T T T T f e.] T T T T T T e.T T T T #.T #.^ T T T T T T T T T T T T k 4 $ ",
"$ #.#.T T T ] T x e.] ] T T T T f T f f x x f f x x f f f f f 9 e.#.T T T ] T T e.T T T ] ] x T T f x x f f f x f f f f f f & $ ",
"$ #.#.T T T ] T x e.] ] T T T T #.g.e.e.e.e.e.e.e.e.e.e.e.e.e.T e.#.T T T T T T e.T T T T ] x e.a.e.e.e.e.e.e.e.e.e.e.e.e.#.4 $ ",
"$ #.#.T T T T T f e.] T T T T T T #.T ] ] ] T T ] ] ] T T T T f e.] T T T T T T e.T T T ] ] f #.#.T ] ] T T T ] T T T ] T T 4 $ ",
"$ #.#.T T T T T f e.T T T T T T T e.T T T T T T ] ] T T T T T f e.] T T T T T T e.T T T ] ] x #.#.T T T T T T T T T T T T T 4 $ ",
"$ #.#.T T T T T f e.T T T T ] T T e.T T T T T T T T T T T T T f e.T T T T T T T e.T T T T ] f #.#.T T T T T ] T T T T T T T 4 $ ",
"$ #.#.T T T ] T f e.] T T T ] T T e.T T T T T T T T T T T T T f e.] T T T T T T e.T T T T ] x #.#.T T T T T ] ] T T ] ] T T 4 $ ",
"$ #.#.T ] T T T f e.T T T T T T T #.T T ] ] ] ] T T T T ] T T f e.T T T T T T T e.T T T T T f #.#.T ] T T T T ] ] ] #.#.T T 4 $ ",
"$ ^ T T T T T f f #.k T T T T f T #.k T T T T T T T T T T T k f #.k T T T T f x #.k T T T T f #.T T T T T T T T T T T T T f : $ ",
"$ ^ #.T T T T T f ] T T T T T T f #.T T T T T T T T T T T T T f #.T T T T T T T #.T T T T T f T #.T T T T T f #.T T T T T T : $ ",
"$ e.e.#.e.e.e.e.e.e.e.e.e.e.#.#.#.g.#.e.e.7.#.T e.e.#.e.e.e.#.T g.#.e.e.e.e.e.e.e.e.e.e.e.#.T e.e.#.e.e.e.#.T g.#.7.e.e.#.#.9 $ ",
"$ #.T T T T T T T T T T T T T k T #.T T T T T f #.^ T T T T T f e.T T T T T T T T T T T T T f #.^ T T T T T f e.T T T T T T 4 $ ",
"$ #.#.T T T T T T T T T T T T T T 7.T T T T ] x #.#.T T T T T f e.T T T T T T T T T T T T ] x #.#.T T T T T f e.#.T T T T T 4 $ ",
"$ #.#.T T T T T T T T T T T T T T 7.T T T T ] x #.#.T T T T T f e.] T T ] ] T T T T T T T #.x #.#.T T T T T f e.#.T T T T T 4 $ ",
"$ #.#.T T T T T T T T T T T T T T e.T T T T ] x #.#.T T T T T f e.] T T ] ] T T T T T T T #.x #.#.T T T ] T f e.] T T T T T 4 $ ",
"$ #.^ T ] ] ] #.#.#.] ] T ] T T T e.T T T T #.x #.#.T T ] T T f e.T T ] ] ] ] ] T ] ] ] ] T f #.#.T ] T ] T f e.] T T T T T 4 $ ",
"$ T T f f f f x x x f f f f f f T e.T T T T #.x #.#.T T ] ] T f #.f f f x x x x f f x x f f 9 #.#.] ] ] ] T f e.] T T T T T 4 $ ",
"$ 4.e.#.#.#.#.#.#.#.#.#.#.#.#.#.T e.T T T T ] f #.#.] ] ] ] ] f e.#.#.#.#.#.#.#.#.#.#.#.#.#.T #.#.T ] ] ] T f e.#.] ] T ] T 4 $ ",
"$ 4.#.#.#.#.#.#.#.#.#.#.#.#.#.T T e.T T T T ] f #.#.] ] ] ] T x e.^ #.#.#.#.#.#.#.#.#.#.#.#.T #.#.T ] ] ] T f e.#.T ] ] T T 4 $ ",
"$ #.#.T ] ] T T ] ] T T ] ] T T T e.T T T T T f #.#.] ] T T T f e.T T T T ] ] ] T T T ] ] T f #.#.T T ] T T f e.#.T T T T T 4 $ ",
"$ #.#.T ] ] ] T T T T T ] ] ] T T e.T ] ] T T f #.#.] ] T T T f e.] T T ] ] ] ] ] ] ] ] ] ] x #.#.T ] ] T T f e.#.T T T T T 4 $ ",
"$ #.#.T ] ] ] ] T T T T T T T T T e.T T ] ] ] f #.#.T T T T T f e.#.T T T T T T ] ] ] ] T ] x #.#.T T T T T f e.] T T T T T 4 $ ",
"$ #.#.T ] ] T T T T T T T T T T T e.T T ] ] T f #.#.T T T T T f e.T T T T T T T ] ] ] ] T T f #.#.T T T T T f e.T T T T T T 4 $ ",
"$ #.T T T T T T T T T T T T T k T #.T T T T T f #.^ T T T T T f e.T T T T T T T T T T T T T f #.^ T T T T T f e.T T T T T T 4 $ ",
"$ k T f f f f f f T f f f f f f f T f f f f f w x T f f f f f 9 T f f f f f f f T f f f f f 9 f T f f f f f 9 T f f f f f f & $ ",
"$ e.e.e.e.e.e.e.T g.e.e.e.e.e.#.#.g.e.e.e.e.e.e.e.e.e.e.e.e.e.T g.e.e.e.e.e.#.#.g.e.e.e.e.e.#.e.a.e.e.e.e.e.e.e.e.e.e.e.e.#.4 $ ",
"$ #.^ T #.] T T f e.T T #.#.T k T #.T ] ] ] T T #.#.#.#.T T T f e.T T ] T T k T e.T T ] T T f #.#.T #.] ] ] ] ] ] ] #.#.T T 4 $ ",
"$ #.#.T T T T T f e.T T T T T T T e.T T T T T T T T T T T T T f e.T T T T T T T e.T T T T T f #.#.T T T T T T T T T T T T T 4 $ ",
"$ #.#.T T T ] T f e.T T T T T T T 7.T T T T T T T T T T T T T f e.T T T T T T T e.T T T T ] x #.#.T T T T T T T T T T T T T 4 $ ",
"$ #.#.T T T ] T f e.T T T T T T T e.T T T T T ] T T T T T T T f e.T T T T ] T T e.T T ] T ] x #.#.T T T T T ] ] T T T T ] T 4 $ ",
"$ #.#.T T T ] T f e.T T T T T T T #.T T T ] ] ] T T ] ] T T T f e.T T T T T T T e.T T ] T ] x #.#.T T T T ] ] ] T T ] ] T T 4 $ ",
"$ #.#.T T ] ] T f e.T T T ] T T T #.k T T T T T T T T T T T k f e.#.T T T ] T T e.T T ] ] #.x #.T T T T T T T T T T T T T f : $ ",
"$ #.#.T T T ] T x e.] T T ] ] T T #.T T T T T T T T T T T T T f e.#.T T T ] T T e.T T ] ] ] x T ] T T T T T T T T T T T T T & $ ",
"$ #.#.] T T T T x e.T T T ] ] T #.g.#.e.e.e.e.e.e.e.e.e.e.e.#.T e.#.T T T T T T e.T T T T T x e.e.e.e.e.e.e.e.e.e.e.e.e.e.#.4 $ ",
"$ #.#.T T T T T f e.T T T T #.T T #.T T T T T T T T T T T T T f e.#.T T T T T T e.T T T T ] T #.^ T T T T T T T T T T T T T 4 $ ",
"$ #.#.T T T ] T f e.T T T T #.T T e.T T T T T T ] ] T T T T T f e.#.T T T T T T e.T T T T ] T #.#.T T T T T T T T T T T T T 4 $ ",
"$ #.#.T ] T T T f e.T T T ] ] T T e.T ] T T T T T ] T T T T T f e.] T T T T T T e.T T T T #.T #.#.T T ] T T T T T T T T T T 4 $ ",
"$ #.#.T ] ] ] T f e.T T T T T T T e.T ] T T T T T T T T T T T f e.] T T T T T T e.T T ] T ] x #.#.T ] ] T T T T T T T T T T 4 $ ",
"$ #.^ T ] ] T T x e.T T ] ] T k T #.T ] T ] ] ] ] ] ] T ] T T f e.T T ] ] T T T e.T ] ] ] T f #.#.T ] ] ] ] ] ] ] ] ] ] T T 4 $ ",
"$ T T f x x f f 9 ] f f x T f f f T f x f f x x T T x x x f f 9 #.f f f x f f f T f x x x f 9 T T f x x f f x x T T x x f f : $ ",
"$ #.e.#.#.#.#.#.#.#.#.#.#.#.#.#.T e.#.#.#.#.#.T #.e.#.#.#.#.#.f e.#.#.#.#.#.#.#.#.#.#.#.#.#.T #.e.#.#.#.#.#.T e.#.#.#.#.#.#.4 $ ",
"$ 4.#.#.#.#.#.#.#.#.#.#.#.#.#.T #.e.^ #.#.#.#.T e.#.#.#.#.#.^ T e.#.#.#.#.#.#.#.#.#.#.#.#.#.T e.#.#.#.#.#.^ T e.#.#.#.#.#.T 4 $ ",
"$ #.^ T T T T T T T T T T ] T T T #.T T T T T f #.#.T T ] T T f e.T T T T T T T T T T T T T f #.#.T T T T T f e.T T T T T T 4 $ ",
"$ #.#.T ] ] ] ] ] ] T T ] ] ] T T e.T T ] T ] x #.#.] ] ] ] T f e.] ] ] ] ] T T ] ] T T ] ] x #.#.T ] ] ] ] f e.#.T T T T T 4 $ ",
"$ #.#.T ] ] ] ] T T T T ] ] ] T T e.T T T T ] x #.#.] ] ] ] T f e.] ] ] ] ] ] T T T T T ] ] x #.#.T ] ] T T f e.#.T T T T T 4 $ ",
"$ #.#.T ] ] ] T T T T T T T T T T e.T T T T T f #.#.] ] T T T f e.T T T ] ] ] ] T T T T T T x #.#.T T T T T f e.#.T T T T T 4 $ ",
"$ #.T T ] T T T T T T T T T T k T e.T T T T ] f #.#.] ] T T T f e.T T T T T T T T T T T T T f #.#.T T T T T f e.#.T T T T T 4 $ ",
"$ k T f f f f f f f f f f f f f f e.T T T ] ] f #.#.T T T T T f T f f f f f f f f f f f f f 9 #.#.T T T T T f e.] T T T T T 4 $ ",
"$ e.e.e.e.e.e.e.e.e.e.e.e.e.e.#.T e.T ] ] ] ] f #.#.T T T T T T g.e.e.e.e.e.e.e.e.e.e.e.e.e.] #.#.T T T ] T f e.] T T T T T 4 $ ",
"$ #.^ T #.#.#.#.#.#.] ] ] #.T k T e.T T T T T f #.#.T ] T T T f e.T T #.#.#.#.#.#.#.] ] ] T f #.#.] ] ] T T f e.#.T T T T T 4 $ ",
"$ #.#.T T T T ] T T T T T T T T T e.T T T T T f #.#.] ] T T T f e.T T T T T T ] T T T T T T f #.#.] ] ] T T f e.#.T T T T T 4 $ ",
"$ #.#.T T T T T T T T T T T T T T e.T T T T T f #.#.] ] T T T f e.] T T T T T T T T T T T T f #.#.T ] ] T T f e.] T T T T T 4 $ ",
"$ #.#.T T T T T T T T T T T T T T e.T T T T T f #.#.] ] T T T f e.] T T T T T T T T T T T T f #.#.] ] ] T T f e.] T T T T T 4 $ ",
"$ #.#.T T T T T T ] T T T T T T T #.T T T T T f #.#.T ] ] T T f e.T T T T T T T T ] T T T T f #.#.T T T T T f e.T T T T T T 4 $ ",
"& #.T T T T T T T T T T T T T f T #.T T T T T f #.T T T T T T f e.T T T T T T T T T T T T T f #.T T T T T T f 7.T T T T T k 4 $ ",
"o : 4 4 4 4 4 4 4 4 4 4 4 4 4 : : 9 4 4 4 4 4 & 4 4 4 4 4 4 4 & 9 4 4 4 4 4 4 4 4 4 4 4 4 4 : 4 4 4 4 4 4 4 & 4 4 4 4 4 4 4 O o ",
"  o $ $ $ $ $ $ $ $ $ $ $ $ $ $ $ $ $ $ $ $ $ $ $ $ $ $ $ $ $ $ $ $ $ $ $ $ $ $ $ $ $ $ $ $ $ $ $ $ $ $ $ $ $ $ $ $ $ $ $ $ o   "
};
